<svg xmlns="http://www.w3.org/2000/svg" viewBox="0 0 900 540" role="img"><rect width="900" height="540" rx="26" fill="#f8fbf9"/><rect x="18" y="18" width="864" height="504" rx="24" fill="#fff" stroke="#cfe5db"/><rect x="18" y="18" width="864" height="8" rx="4" fill="#11976a"/><defs><marker id="arr" markerWidth="10" markerHeight="10" refX="8" refY="5" orient="auto"><path d="M0,0 L10,5 L0,10 z" fill="#84978e"/></marker></defs><text x="52" y="68" font-family="IBM Plex Mono, monospace" font-size="13" font-weight="700" fill="#11976a" text-anchor="start">ARQUITECTURA · CLOUD HÍBRIDO</text><text x="52" y="101" font-family="Inter, Arial, sans-serif" font-size="22" font-weight="800" fill="#15372b" text-anchor="start">ExpressRoute vs VPN</text><text x="52" y="126" font-family="Inter, Arial, sans-serif" font-size="13" font-weight="500" fill="#5f6e67" text-anchor="start">dos caminos, compromisos distintos</text><circle cx="145" cy="270" r="50" fill="#fff" stroke="#cfe5db" stroke-width="3"/><text x="145" y="276" font-family="Inter, Arial, sans-serif" font-size="15" font-weight="800" fill="#15372b" text-anchor="middle">On‑prem</text><circle cx="755" cy="270" r="50" fill="#fff" stroke="#cfe5db" stroke-width="3"/><text x="755" y="276" font-family="Inter, Arial, sans-serif" font-size="15" font-weight="800" fill="#15372b" text-anchor="middle">Cloud</text><path d="M195 238 C350 150 550 150 705 238" fill="none" stroke="#11976a" stroke-width="8" stroke-linecap="round" stroke-linejoin="round"/><text x="450" y="174" font-family="IBM Plex Mono, monospace" font-size="13" font-weight="700" fill="#11976a" text-anchor="middle">ExpressRoute / Direct Connect</text><path d="M195 302 C350 390 550 390 705 302" fill="none" stroke="#e6a64e" stroke-width="6" stroke-linecap="round" stroke-linejoin="round" stroke-dasharray="10 8"/><text x="450" y="374" font-family="IBM Plex Mono, monospace" font-size="13" font-weight="700" fill="#b96b10" text-anchor="middle">VPN IPSec</text><rect x="265" y="420" width="82" height="28" rx="14" fill="#fff" stroke="#cfe5db" stroke-width="2"/><text x="306.0" y="439" font-family="IBM Plex Mono, monospace" font-size="12" font-weight="700" fill="#15372b" text-anchor="middle">latencia</text><rect x="415" y="420" width="58" height="28" rx="14" fill="#fff" stroke="#cfe5db" stroke-width="2"/><text x="444.0" y="439" font-family="IBM Plex Mono, monospace" font-size="12" font-weight="700" fill="#15372b" text-anchor="middle">coste</text><rect x="565" y="420" width="106" height="28" rx="14" fill="#fff" stroke="#cfe5db" stroke-width="2"/><text x="618.0" y="439" font-family="IBM Plex Mono, monospace" font-size="12" font-weight="700" fill="#15372b" text-anchor="middle">resiliencia</text></svg>