<svg xmlns="http://www.w3.org/2000/svg" viewBox="0 0 900 540" role="img"><rect width="900" height="540" rx="26" fill="#f8fbf9"/><rect x="18" y="18" width="864" height="504" rx="24" fill="#fff" stroke="#cfe5db"/><rect x="18" y="18" width="864" height="8" rx="4" fill="#11976a"/><defs><marker id="arr" markerWidth="10" markerHeight="10" refX="8" refY="5" orient="auto"><path d="M0,0 L10,5 L0,10 z" fill="#84978e"/></marker></defs><text x="52" y="68" font-family="IBM Plex Mono, monospace" font-size="13" font-weight="700" fill="#11976a" text-anchor="start">ARQUITECTURA · HA</text><text x="52" y="101" font-family="Inter, Arial, sans-serif" font-size="22" font-weight="800" fill="#15372b" text-anchor="start">Prueba verificable</text><text x="52" y="126" font-family="Inter, Arial, sans-serif" font-size="13" font-weight="500" fill="#5f6e67" text-anchor="start">no basta con &quot;parece que funciona&quot;</text><circle cx="250" cy="190" r="13" fill="#e9f7f1" stroke="#11976a" stroke-width="2"/><path d="M243 190 l5 5 l10 -12" fill="none" stroke="#11976a" stroke-width="3" stroke-linecap="round" stroke-linejoin="round"/><text x="285" y="196" font-family="Inter, Arial, sans-serif" font-size="16" font-weight="700" fill="#15372b" text-anchor="start">failover</text><line x1="480" y1="190" x2="720" y2="190" stroke="#d7e3de" stroke-width="2"/><circle cx="250" cy="252" r="13" fill="#e9f7f1" stroke="#11976a" stroke-width="2"/><path d="M243 252 l5 5 l10 -12" fill="none" stroke="#11976a" stroke-width="3" stroke-linecap="round" stroke-linejoin="round"/><text x="285" y="258" font-family="Inter, Arial, sans-serif" font-size="16" font-weight="700" fill="#15372b" text-anchor="start">sesiones</text><line x1="480" y1="252" x2="720" y2="252" stroke="#d7e3de" stroke-width="2"/><circle cx="250" cy="314" r="13" fill="#e9f7f1" stroke="#11976a" stroke-width="2"/><path d="M243 314 l5 5 l10 -12" fill="none" stroke="#11976a" stroke-width="3" stroke-linecap="round" stroke-linejoin="round"/><text x="285" y="320" font-family="Inter, Arial, sans-serif" font-size="16" font-weight="700" fill="#15372b" text-anchor="start">dependencias</text><line x1="480" y1="314" x2="720" y2="314" stroke="#d7e3de" stroke-width="2"/><circle cx="250" cy="376" r="13" fill="#e9f7f1" stroke="#11976a" stroke-width="2"/><path d="M243 376 l5 5 l10 -12" fill="none" stroke="#11976a" stroke-width="3" stroke-linecap="round" stroke-linejoin="round"/><text x="285" y="382" font-family="Inter, Arial, sans-serif" font-size="16" font-weight="700" fill="#15372b" text-anchor="start">retorno</text><line x1="480" y1="376" x2="720" y2="376" stroke="#d7e3de" stroke-width="2"/><text x="590" y="410" font-family="IBM Plex Mono, monospace" font-size="13" font-weight="800" fill="#11976a" text-anchor="middle">evidencia</text></svg>