<svg xmlns="http://www.w3.org/2000/svg" viewBox="0 0 900 540" role="img"><rect width="900" height="540" rx="26" fill="#f9fbfa"/><rect x="18" y="18" width="864" height="504" rx="24" fill="#fff" stroke="#d3e6e2"/><rect x="18" y="18" width="864" height="8" rx="4" fill="#147f73"/><defs><marker id="arr" markerWidth="10" markerHeight="10" refX="8" refY="5" orient="auto"><path d="M0,0 L10,5 L0,10 z" fill="#84978e"/></marker></defs><text x="52" y="68" font-family="IBM Plex Mono, monospace" font-size="13" font-weight="700" fill="#147f73" text-anchor="start">GOBERNANZA · ACTIVE DIRECTORY</text><text x="52" y="101" font-family="Inter, Arial, sans-serif" font-size="22" font-weight="800" fill="#17322d" text-anchor="start">Active Directory</text><text x="52" y="126" font-family="Inter, Arial, sans-serif" font-size="13" font-weight="500" fill="#5f6e67" text-anchor="start">concepto específico del artículo</text><circle cx="450" cy="280" r="54" fill="#e8f4f2" stroke="#147f73" stroke-width="3"/><text x="450" y="286" font-family="IBM Plex Mono, monospace" font-size="14" font-weight="800" fill="#147f73" text-anchor="middle">Active Dir</text><circle cx="640.0" cy="280.0" r="29" fill="#fff" stroke="#d3e6e2" stroke-width="2"/><text x="640.0" y="285.0" font-family="IBM Plex Mono, monospace" font-size="10" font-weight="800" fill="#17322d" text-anchor="middle">N1</text><line x1="450" y1="280" x2="640.0" y2="280.0" stroke="#8da198" stroke-width="2"/><circle cx="450.0" cy="405.0" r="29" fill="#fff" stroke="#d3e6e2" stroke-width="2"/><text x="450.0" y="410.0" font-family="IBM Plex Mono, monospace" font-size="10" font-weight="800" fill="#17322d" text-anchor="middle">N2</text><line x1="450" y1="280" x2="450.0" y2="405.0" stroke="#8da198" stroke-width="2"/><circle cx="260.0" cy="280.0" r="29" fill="#fff" stroke="#d3e6e2" stroke-width="2"/><text x="260.0" y="285.0" font-family="IBM Plex Mono, monospace" font-size="10" font-weight="800" fill="#17322d" text-anchor="middle">N3</text><line x1="450" y1="280" x2="260.0" y2="280.0" stroke="#8da198" stroke-width="2"/><circle cx="449.99999999999994" cy="155.0" r="29" fill="#fff" stroke="#d3e6e2" stroke-width="2"/><text x="449.99999999999994" y="160.0" font-family="IBM Plex Mono, monospace" font-size="10" font-weight="800" fill="#17322d" text-anchor="middle">N4</text><line x1="450" y1="280" x2="449.99999999999994" y2="155.0" stroke="#8da198" stroke-width="2"/><text x="450" y="430" font-family="IBM Plex Mono, monospace" font-size="11" font-weight="600" fill="#147f73" text-anchor="middle">Políticas, estándares y gestión de excepciones para Active Direct…</text></svg>